<?xml version="1.0" encoding="UTF-8"?><svg id="a" xmlns="http://www.w3.org/2000/svg" viewBox="0 0 227.15 244.11"><defs><style>.b{fill:#fee1c7;}</style></defs><path class="b" d="M76.77,43.62c8.29-.02,16.43-5.29,19.5-13.5,3.84-10.28-1.46-21.86-10-26-12.47-6.04-30.31,4.55-31,18-.54,10.52,9.49,21.52,21.5,21.5Z"/><path class="b" d="M179.27,131.12c.17-2.66,1.86-4.15,4-7,4.22-5.64,3.65-7.87,6-11,4.71-6.27,16.67-10.17,26-5.5,9.3,4.66,11.07,15.39,11.5,18,.31,1.86,2.57,17.23-9,25.5-6.98,4.99-16.64,5.71-23.5,2-.85-.46-4.57-5.31-12-15-1.56-2.03-3.18-4.21-3-7Z"/><path class="b" d="M153.77,117.62c7.85-2.27,16.83,5.04,17.5,13.5,.49,6.17-3.4,13.59-10.5,15-7.14,1.42-13.52-4.03-15.5-10-2.43-7.33,1.44-16.46,8.5-18.5Z"/><path class="b" d="M121.62,177.72c2.25,5.44,.82,12.63-3.51,15.51-6.04,4.01-16.53-1.15-18.12-9.31-.98-5.03,1.39-11.4,6.43-13.65,5.89-2.62,12.76,1.55,15.2,7.44Z"/><path class="b" d="M106.87,206.41c9.7-6,23.72-2.34,29,8.5,5.16,10.59-.05,23.91-11,28-10.38,3.87-22.13-1.95-26-12-3.43-8.9-.06-19.51,8-24.5Z"/><path class="b" d="M83.27,231.17c2.12,.75,4.97,.08,6.5-2,1.82-2.46,1.15-6.02-1-8-2.51-2.31-6.63-2.09-8.5,0-2.49,2.79-.78,8.67,3,10Z"/><path class="b" d="M171.7,116.9c2.12,.75,4.97,.08,6.5-2,1.82-2.46,1.15-6.02-1-8-2.51-2.31-6.63-2.09-8.5,0-2.49,2.79-.78,8.67,3,10Z"/><path class="b" d="M38.54,108.28c3.63,5.23,4.11,12.45,1,18-.62,1.1-2.71,4.72-7,6.5-6.93,2.88-16.41-.34-20.5-7.5-4.53-7.92-1.9-19.66,6.5-23.5,7.17-3.28,15.8,.46,20,6.5Z"/><path class="b" d="M24.29,147.13c-.48,5.03-4.96,9.22-10,9-5.79-.26-10.32-6.24-9-12,1.3-5.69,7.82-8.98,13-7,3.95,1.51,6.4,5.79,6,10Z"/><path class="b" d="M54.45,126.92c5.21-1.94,15.27,6.78,13.5,13-1.45,5.09-10.82,8.48-15.5,5-5.43-4.04-2.93-16.16,2-18Z"/><path class="b" d="M52.45,96.92c10.49,9.59,4.15,21.91,15.5,30.5,8.11,6.14,21.44,7.48,28,1.5,9.54-8.7,3.87-32.03-8-39-8.66-5.09-15.63,1.47-22-4-7.58-6.52-.17-17.93-8-34-1.74-3.58-5.9-12.11-14.5-16C29.14,29.45,5.87,37.36,.95,53.92c-3.42,11.53,2.83,24.63,11.5,31.5,14.13,11.19,28.09,.61,40,11.5Z"/><path class="b" d="M78.77,62.12c-3.06,1.26-5.14,9.5-1,14.5,3.18,3.85,9.89,5.58,14,2,4.59-4,3.04-12.11,0-14-1.88-1.17-6-1-6-1h0s-4.65-2.46-7-1.5Z"/><path class="b" d="M72.77,49.62c2.95,1.54,2.3,8.56,0,9.5-2.19,.89-7.44-3.11-6.5-6.5,.68-2.45,4.44-4.08,6.5-3Z"/><path class="b" d="M107.77,81.12c1.18,3.07,11.48,29.93,2,46.5-9.98,17.43-40.84,21.68-65,25-11.57,1.59-16.85,1.24-22.5,6-11.79,9.94-14.34,33.04-4.5,49.5,1.72,2.88,9.53,15.11,25,18.5,15.85,3.47,33.13-3.78,40-15.5,6.2-10.57-.64-17,6.5-33,2.58-5.8,7.22-16.19,17-19,9.82-2.82,20.9,3.14,27.07,10.13,11.02,12.48,2.89,24.27,13.43,35.37,7.7,8.11,21.35,11.64,32.52,7.56,1.72-.63,11.57-4.23,14.98-13.56,4.49-12.29-5.18-26.38-14.5-33-8.2-5.83-11.55-2.62-22.5-8.5-2.62-1.4-23.33-12.82-22.5-27,.55-9.43,10.38-16.04,20-22.5,12.93-8.69,17.07-6.22,28-14.5,4.81-3.65,14.31-10.85,18.5-23.5,4.36-13.17,.55-24.94-1-29.5C193.91,21.37,173.97-1.86,147.77,.12c-25.43,1.92-38.77,26.23-40.5,29.5-1.63,3.08-9.46,18.63-5.5,36.5,1.47,6.64,3.35,8.1,6,15Z"/></svg>